<svg xmlns="http://www.w3.org/2000/svg" viewBox="0 0 1100 372">
  <rect x="0" y="0" width="1100" height="372" fill="#cdb044"/>
  <path d="M3.11-31.08C3.11-11.54 15.21 0.89 30.41 0.89C39.52 0.89 46.06-3.22 49.51-8.88L49.51 0L68.49 0L68.49-82.14L49.51-82.14L49.51-53.39C45.73-59.05 38.63-62.83 30.41-62.83C15.21-62.83 3.11-50.62 3.11-31.08ZM49.51-30.97C49.51-21.09 43.18-15.65 35.96-15.65C28.86-15.65 22.42-21.20 22.42-31.08C22.42-40.96 28.86-46.29 35.96-46.29C43.18-46.29 49.51-40.85 49.51-30.97ZM142.86-30.97C142.86-50.62 128.87-62.83 110.67-62.83C92.57-62.83 78.48-50.62 78.48-30.97C78.48-11.32 92.24 0.89 110.44 0.89C128.65 0.89 142.86-11.32 142.86-30.97ZM97.79-30.97C97.79-41.51 103.78-46.40 110.67-46.40C117.33-46.40 123.54-41.51 123.54-30.97C123.54-20.54 117.22-15.54 110.44-15.54C103.56-15.54 97.79-20.54 97.79-30.97ZM149.18-30.97C149.18-11.32 162.06 0.89 180.26 0.89C195.80 0.89 206.79-8.10 210.01-22.42L189.81-22.42C188.15-17.87 185.15-15.32 179.93-15.32C173.16-15.32 168.50-20.65 168.50-30.97C168.50-41.29 173.16-46.62 179.93-46.62C185.15-46.62 188.26-43.84 189.81-39.52L210.01-39.52C206.79-54.28 195.80-62.83 180.26-62.83C162.06-62.83 149.18-50.51 149.18-30.97ZM220.11 0L239.09 0L239.09-25.97L257.96 0L281.50 0L255.52-30.86L281.27-61.94L257.85-61.94L239.09-36.74L239.09-82.14L220.11-82.14ZM316.02-47.62C322.34-47.62 327.67-43.73 327.67-36.96L303.92-36.96C305.03-43.84 309.80-47.62 316.02-47.62ZM345.65-20.54L325.45-20.54C323.90-17.21 320.90-14.54 315.57-14.54C309.47-14.54 304.47-18.32 303.81-26.42L346.76-26.42C346.99-28.30 347.10-30.19 347.10-31.97C347.10-50.84 334.33-62.83 316.24-62.83C297.81-62.83 284.94-50.62 284.94-30.97C284.94-11.32 298.04 0.89 316.24 0.89C331.67 0.89 342.66-8.44 345.65-20.54ZM376.07-28.75C376.07-39.41 381.29-42.51 390.28-42.51L395.49-42.51L395.49-62.60C387.17-62.60 380.40-58.16 376.07-51.62L376.07-61.94L357.09-61.94L357.09 0L376.07 0ZM403.49-31.08L452.33-31.08L452.33-46.84L403.49-46.84ZM554.33 0L573.20 0L573.20-36.19C573.20-52.84 563.33-62.60 548.01-62.60C539.02-62.60 531.25-57.61 527.14-51.06C522.92-58.50 515.37-62.60 506.05-62.60C497.95-62.60 491.62-59.16 487.96-54.17L487.96-61.94L468.98-61.94L468.98 0L487.96 0L487.96-33.63C487.96-41.74 492.62-46.18 499.83-46.18C507.05-46.18 511.71-41.74 511.71-33.63L511.71 0L530.58 0L530.58-33.63C530.58-41.74 535.24-46.18 542.46-46.18C549.67-46.18 554.33-41.74 554.33-33.63ZM582.75-31.08C582.75-11.54 594.85 0.89 609.95 0.89C619.16 0.89 625.71-3.33 629.15-8.77L629.15 0L648.13 0L648.13-61.94L629.15-61.94L629.15-53.17C625.82-58.61 619.27-62.83 610.06-62.83C594.85-62.83 582.75-50.62 582.75-31.08ZM629.15-30.97C629.15-21.09 622.82-15.65 615.61-15.65C608.50-15.65 602.06-21.20 602.06-31.08C602.06-40.96 608.50-46.29 615.61-46.29C622.82-46.29 629.15-40.85 629.15-30.97ZM658.12-31.08C658.12-11.54 670.22 0.89 685.43 0.89C694.53 0.89 701.08-3.44 704.52-8.88L704.52-0.11C704.52 10.32 698.86 14.10 691.64 14.10C685.09 14.10 680.43 11.10 679.21 6.44L660.45 6.44C662.12 21.20 674.10 30.53 692.53 30.53C713.95 30.53 723.50 16.43 723.50-0.11L723.50-61.94L704.52-61.94L704.52-53.17C701.19-58.72 694.53-62.83 685.43-62.83C670.22-62.83 658.12-50.62 658.12-31.08ZM704.52-30.97C704.52-21.09 698.19-15.65 690.98-15.65C683.87-15.65 677.43-21.20 677.43-31.08C677.43-40.96 683.87-46.29 690.98-46.29C698.19-46.29 704.52-40.85 704.52-30.97ZM737.26 0L756.24 0L756.24-61.94L737.26-61.94ZM746.81-68.38C753.47-68.38 758.02-72.93 758.02-78.59C758.02-84.36 753.47-88.91 746.81-88.91C740.04-88.91 735.49-84.36 735.49-78.59C735.49-72.93 740.04-68.38 746.81-68.38ZM766.23-30.97C766.23-11.32 779.11 0.89 797.31 0.89C812.85 0.89 823.84-8.10 827.06-22.42L806.86-22.42C805.19-17.87 802.20-15.32 796.98-15.32C790.21-15.32 785.55-20.65 785.55-30.97C785.55-41.29 790.21-46.62 796.98-46.62C802.20-46.62 805.31-43.84 806.86-39.52L827.06-39.52C823.84-54.28 812.85-62.83 797.31-62.83C779.11-62.83 766.23-50.51 766.23-30.97ZM837.16 0L856.14 0L856.14-25.97L875.01 0L898.55 0L872.57-30.86L898.32-61.94L874.90-61.94L856.14-36.74L856.14-82.14L837.16-82.14Z" transform="translate(100.56,225.13)" fill="#fff"/>
</svg>
